<svg xmlns="http://www.w3.org/2000/svg" viewBox="0 0 100 100" aria-hidden="true">
  <!-- Steam wisps -->
  <g stroke="#9aa" stroke-width="2" fill="none" stroke-linecap="round" opacity="0.55">
    <path d="M 36 24 C 31 16 44 12 39 3"/>
    <path d="M 50 22 C 45 14 58 10 53 1"/>
    <path d="M 64 24 C 59 16 72 12 67 3"/>
  </g>
  <!-- Rice mound -->
  <path d="M 22 52 Q 22 31 50 31 Q 78 31 78 52 Z" fill="#fafaf0"/>
  <!-- Protein strips -->
  <ellipse cx="38" cy="41" rx="11" ry="3.5" fill="#F47B20"/>
  <ellipse cx="60" cy="39" rx="11" ry="3.5" fill="#E63946"/>
  <ellipse cx="56" cy="48" rx="9" ry="2.7" fill="#a8401a"/>
  <ellipse cx="40" cy="49" rx="8" ry="2.5" fill="#a8401a"/>
  <!-- Scallion greens -->
  <circle cx="30" cy="47" r="2.2" fill="#6FBE44"/>
  <circle cx="70" cy="47" r="2.2" fill="#6FBE44"/>
  <circle cx="50" cy="50" r="2" fill="#6FBE44"/>
  <!-- Sesame -->
  <circle cx="42" cy="43" r="1" fill="#fff"/>
  <circle cx="56" cy="42" r="1" fill="#fff"/>
  <circle cx="48" cy="45" r="1" fill="#fff"/>
  <!-- Bowl rim -->
  <ellipse cx="50" cy="52" rx="32" ry="5.5" fill="#3a2418"/>
  <ellipse cx="50" cy="51" rx="29" ry="3" fill="#2a1810"/>
  <!-- Bowl body -->
  <path d="M 18 53 Q 18 82 50 86 Q 82 82 82 53 Z" fill="#5a3621"/>
  <path d="M 24 60 Q 24 78 30 84" stroke="#7a4a30" stroke-width="2" stroke-linecap="round" fill="none" opacity="0.5"/>
</svg>
